# xmcd
# 
# Track frame offsets:
#     150
#     17325
#     22932
#     32251
#     44213
#     55425
#     70864
#     84584
#     96416
#     106986
#     114498
#     124629
#     129022
#     148510
#     159432
# 
# Disc length: 2262
# 
# Revision: 2
# Processed by: cddbd v1.5.2PL0 Copyright (c) Steve Scherf et al.
# Submitted via: BonkEnc v1.0.8
# 
DISCID=bb08d40f
DTITLE=Schwäbischer Posaunendienst - Ulmer Sonderdruck 24 Übungs-CD
DYEAR=2008
DGENRE=Brass Ensemble
TTITLE0=Sonata "La Albama" - Magini
TTITLE1=In der Stille angekommen  Intro - H.-U.Nonnenmann
TTITLE2=In der Stille angekommen Begleitsatz - H.-U.Nonnenmann
TTITLE3=Bis an das Ende der Welt - H.-J. Eissler
TTITLE4=Jesus in My House - H.-U.Nonnenmann
TTITLE5=Jesus lebt, mit ihm auch ich  Choralfantasie - B.Schloemann
TTITLE6=Jesus lebt, mit ihm auch ich Begeleitsaetze - B.Schloemann
TTITLE7=Wenn uns das Leben lebendig macht - R.Groessler
TTITLE8=Wer bis an das Ende beharrt - Felix Mendelsohn-Bartholdy
TTITLE9=Alles was ihr tut - Dietrich Buxtehude
TTITLE10=Herr mach uns stark im Mut  Vorspiel - I.Bredenbach
TTITLE11=Herr mach uns stark im Mut  Begeleitsatz - I.Bredenbach
TTITLE12=Moege die Strasse - Kanon Pachelbel  - H.-U.Nonnenmann
TTITLE13=Ein Leben fuer Gott Fantasie - M.Schuetz
TTITLE14=Ein Leben fuer Gott Liedsatz - M.Schuetz
EXTD=YEAR: 2008
EXTT0=
EXTT1=
EXTT2=
EXTT3=
EXTT4=
EXTT5=
EXTT6=
EXTT7=
EXTT8=
EXTT9=
EXTT10=
EXTT11=
EXTT12=
EXTT13=
EXTT14=
PLAYORDER=
